<svg width="1440" height="1024" viewBox="0 0 1440 1024" fill="none" xmlns="http://www.w3.org/2000/svg">
<rect width="1440" height="1024" fill="#E5E5E5"/>
<g id="Desktop - 1">
<rect width="1440" height="1024" fill="white"/>
<g id="undraw_listening_1u79 1">
<g clip-path="url(#clip0)">
<path id="Vector" d="M953.842 831.071L1004.21 779.672L953.848 836.646L953.852 842.478C950.239 842.466 946.663 842.394 943.122 842.26L946.853 767.332L946.796 766.753L946.889 766.642L947.244 759.562L894 703.703L947.271 754.261L947.437 755.759L950.255 699.148L904.43 641.314L950.558 689.201L952.067 571.881L952.075 571.491L952.084 571.875L953.616 664.362L996.911 627.165L953.619 672.328L953.688 722.988L993.782 673.885L953.705 730.435L953.744 758.604L1012 690.226L953.75 768.431L953.842 831.071Z" fill="#148F21"/>
<path id="bigtree" d="M314.515 833.504L405.679 740.55L314.443 843.628L314.363 854.217C307.879 854.17 301.46 854.011 295.108 853.742L302.92 717.712L302.825 716.661L302.993 716.46L303.737 703.606L209 601.778L303.863 693.98L304.14 696.703L310.041 593.927L228.65 488.569L310.733 575.868L315.187 362.845L315.207 362.136L315.218 362.834L316.59 530.787L394.856 463.566L316.479 545.252L315.847 637.242L388.544 548.38L315.767 650.766L315.417 701.917L421 578.188L315.282 719.761L314.515 833.504Z" fill="#307E38"/>
<path id="stand" d="M624.5 892.37C863.915 892.37 1058 872.004 1058 846.88C1058 821.756 863.915 801.389 624.5 801.389C385.085 801.389 191 821.756 191 846.88C191 872.004 385.085 892.37 624.5 892.37Z" fill="#871A1A"/>
<g id="music">
<path id="Vector_2" d="M872.934 242.909L872.981 242.901L866.154 202.889L828.405 214.912L834.053 250.7C832.108 249.467 829.789 248.968 827.511 249.291C825.232 249.614 823.142 250.739 821.615 252.465C820.087 254.191 819.221 256.405 819.172 258.711C819.123 261.018 819.893 263.267 821.346 265.057C822.798 266.847 824.838 268.06 827.101 268.481C829.364 268.902 831.702 268.502 833.698 267.354C835.694 266.205 837.217 264.383 837.997 262.212C838.776 260.041 838.76 257.663 837.951 255.503L837.986 255.497L831.924 217.091L863.67 206.979L869.067 238.609C867.075 237.428 864.727 237.001 862.448 237.406C860.17 237.811 858.112 239.022 856.646 240.817C855.181 242.613 854.406 244.876 854.462 247.195C854.518 249.514 855.4 251.737 856.95 253.46C858.5 255.183 860.614 256.293 862.909 256.587C865.204 256.882 867.529 256.343 869.462 255.067C871.395 253.791 872.807 251.863 873.444 249.633C874.082 247.403 873.9 245.017 872.934 242.909V242.909Z" fill="#160EA0"/>
<path id="Vector_3" d="M454.207 242.567L454.249 242.559L448.128 202.674L414.281 214.659L419.345 250.333C417.601 249.104 415.522 248.606 413.479 248.928C411.435 249.251 409.562 250.372 408.192 252.092C406.822 253.812 406.046 256.019 406.002 258.319C405.958 260.618 406.649 262.86 407.951 264.644C409.253 266.428 411.082 267.638 413.111 268.057C415.14 268.477 417.237 268.079 419.026 266.934C420.816 265.789 422.182 263.972 422.881 261.808C423.579 259.644 423.565 257.274 422.84 255.12L422.871 255.115L417.436 216.83L445.901 206.751L450.739 238.28C448.953 237.103 446.848 236.678 444.805 237.082C442.762 237.485 440.917 238.692 439.603 240.482C438.289 242.272 437.594 244.527 437.644 246.839C437.694 249.151 438.486 251.367 439.875 253.084C441.264 254.802 443.16 255.908 445.218 256.202C447.276 256.495 449.361 255.958 451.094 254.686C452.827 253.414 454.093 251.493 454.665 249.269C455.236 247.046 455.074 244.668 454.207 242.567V242.567Z" fill="#160EA0"/>
<path id="Vector_4" d="M1053.66 258.22L1053.7 258.212L1046.88 218.2L1009.13 230.224L1014.78 266.011C1012.83 264.778 1010.51 264.279 1008.23 264.602C1005.95 264.925 1003.86 266.05 1002.34 267.776C1000.81 269.502 999.943 271.716 999.894 274.022C999.845 276.329 1000.61 278.578 1002.07 280.368C1003.52 282.158 1005.56 283.371 1007.82 283.792C1010.09 284.213 1012.42 283.813 1014.42 282.665C1016.42 281.516 1017.94 279.694 1018.72 277.523C1019.5 275.352 1019.48 272.974 1018.67 270.814L1018.71 270.808L1012.65 232.402L1044.39 222.29L1049.79 253.92C1047.8 252.739 1045.45 252.312 1043.17 252.717C1040.89 253.123 1038.83 254.333 1037.37 256.129C1035.9 257.924 1035.13 260.187 1035.18 262.506C1035.24 264.826 1036.12 267.048 1037.67 268.771C1039.22 270.494 1041.34 271.604 1043.63 271.898C1045.93 272.193 1048.25 271.654 1050.18 270.378C1052.12 269.102 1053.53 267.174 1054.17 264.944C1054.8 262.714 1054.62 260.328 1053.66 258.22V258.22Z" fill="#160EA0"/>
<path id="Vector_5" d="M924.486 286.931L924.513 286.927L919.65 256.111L917.248 256.492L921.464 283.207C919.956 282.251 918.158 281.864 916.391 282.115C914.624 282.365 913.004 283.238 911.82 284.576C910.635 285.914 909.964 287.631 909.926 289.419C909.888 291.208 910.485 292.952 911.611 294.339C912.738 295.727 914.319 296.668 916.074 296.994C917.828 297.32 919.641 297.011 921.189 296.12C922.736 295.23 923.918 293.816 924.522 292.133C925.126 290.45 925.113 288.606 924.486 286.931V286.931Z" fill="#3229C7"/>
<path id="Vector_6" d="M552.126 308.893L552.172 308.885L545.427 269L508.126 280.985L513.707 316.659C511.785 315.43 509.493 314.932 507.242 315.254C504.99 315.576 502.925 316.698 501.416 318.418C499.906 320.138 499.051 322.345 499.002 324.644C498.954 326.944 499.715 329.186 501.15 330.97C502.585 332.754 504.601 333.964 506.837 334.383C509.073 334.802 511.383 334.404 513.355 333.259C515.328 332.115 516.833 330.298 517.603 328.134C518.373 325.97 518.357 323.599 517.558 321.446L517.592 321.44L511.603 283.156L542.972 273.077L548.305 304.606C546.336 303.429 544.016 303.003 541.765 303.407C539.513 303.811 537.48 305.017 536.032 306.807C534.584 308.598 533.818 310.853 533.873 313.165C533.928 315.477 534.8 317.692 536.332 319.41C537.863 321.127 539.952 322.233 542.22 322.527C544.488 322.821 546.785 322.283 548.695 321.012C550.605 319.74 552.001 317.818 552.63 315.595C553.26 313.372 553.081 310.994 552.126 308.893V308.893Z" fill="#160EA0"/>
<path id="Vector_7" d="M965.747 248.673C965.75 247.003 965.2 245.379 964.182 244.057C963.164 242.734 961.737 241.789 960.124 241.37C958.511 240.951 956.805 241.081 955.275 241.741C953.744 242.4 952.476 243.551 951.67 245.013C950.864 246.474 950.565 248.163 950.822 249.814C951.078 251.464 951.875 252.982 953.086 254.128C954.297 255.275 955.855 255.985 957.513 256.146C959.171 256.308 960.836 255.912 962.245 255.021L958.029 281.736L960.43 282.117L965.294 251.301L965.267 251.297C965.582 250.458 965.745 249.569 965.747 248.673V248.673Z" fill="#352BDA"/>
</g>
<g id="girl">
<path id="Vector_8" d="M653.252 731.146L667.482 752.547L688.828 735.902L674.598 718.068L653.252 731.146Z" fill="#FFB8B8"/>
<path id="Vector_9" d="M670.231 741.064C670.231 741.064 649.85 742.014 655.595 752.815C661.34 763.616 665.822 824.561 682.219 821.03C698.616 817.499 713.482 798.819 713.3 785.96C713.118 773.102 711.065 767.525 711.065 767.525C711.065 767.525 706.669 759.013 709.596 756.663C712.523 754.313 713.628 739.457 706.656 734.939C699.685 730.422 679.535 724.443 679.535 724.443C679.535 724.443 677.494 742.939 670.231 741.064Z" fill="black"/>
<path id="Vector_10" d="M680.527 781.081L675.783 807.237L700.687 809.615V789.403L680.527 781.081Z" fill="#FFB8B8"/>
<path id="Vector_11" d="M629.534 426.783C629.534 426.783 616.489 470.773 612.932 496.93C612.932 496.93 541.779 593.232 554.823 634.844C567.868 676.456 605.816 759.68 605.816 759.68C605.816 759.68 669.854 733.524 682.899 719.257L635.463 651.489C635.463 651.489 642.579 643.166 631.906 638.411C621.233 633.655 630.72 627.711 630.72 627.711C630.72 627.711 650.88 559.942 671.04 552.809L741.007 538.542C741.007 538.542 736.263 437.484 719.661 419.65C719.661 419.65 636.649 420.839 629.534 426.783Z" fill="black"/>
<path id="Vector_12" d="M686.456 796.537C686.456 796.537 674.597 779.892 668.668 790.592C662.738 801.292 614.117 838.149 625.976 850.038C637.835 861.927 661.553 864.305 672.226 857.172C682.899 850.038 686.456 845.282 686.456 845.282C686.456 845.282 691.2 836.96 694.757 838.149C698.315 839.338 711.36 832.204 711.36 823.882C711.36 815.559 705.43 795.348 705.43 795.348C705.43 795.348 688.828 803.67 686.456 796.537Z" fill="black"/>
<path id="Vector_13" d="M668.668 544.486L685.27 688.345C685.27 688.345 675.783 728.769 673.411 759.68C671.04 790.592 673.411 789.403 673.411 789.403C673.411 789.403 726.776 810.804 736.263 796.537C745.75 782.27 741.007 538.542 741.007 538.542L712.545 512.385L668.668 544.486Z" fill="black"/>
<path id="Vector_14" d="M639.718 223.328C652.029 194.206 683.367 188.706 683.367 188.706C683.367 188.706 713.542 180.635 738.742 219.071C762.23 254.896 792.519 288.461 754.106 302.761L743.96 281.396L742.742 305.983C737.157 307.149 731.511 308.008 725.832 308.556C683.224 312.896 643.06 320.111 642.316 304.674C641.327 284.152 627.872 251.35 639.718 223.328Z" fill="#2F2E41"/>
<path id="Vector_15" d="M690.014 280.547C709.007 280.547 724.404 265.11 724.404 246.068C724.404 227.026 709.007 211.589 690.014 211.589C671.02 211.589 655.623 227.026 655.623 246.068C655.623 265.11 671.02 280.547 690.014 280.547Z" fill="#FFB8B8"/>
<path id="Vector_16" d="M679.934 268.063C679.934 268.063 679.341 303.136 675.783 311.458C672.226 319.781 739.228 304.919 739.228 304.919C739.228 304.919 715.51 288.275 711.953 265.685L679.934 268.063Z" fill="#FFB8B8"/>
<path id="Vector_17" d="M685.27 297.191L678.794 292.416L633.092 294.814L623.604 399.438C623.604 399.438 596.329 431.539 629.534 431.539C662.738 431.539 693.571 416.083 717.289 426.783C741.007 437.484 761.167 313.836 761.167 313.836L725.713 292.416C725.713 292.416 710.174 311.458 685.27 297.191Z" fill="#F34E1A"/>
<path id="Vector_18" d="M646.136 381.605L712.545 395.872V411.328L646.136 413.705C646.136 413.705 639.021 386.36 646.136 381.605Z" fill="#FFB8B8"/>
<path id="Vector_19" d="M646.136 300.758L633.092 294.814C633.092 294.814 617.675 298.38 616.489 311.458C615.303 324.537 592.772 408.95 610.56 412.516C628.348 416.083 652.066 416.083 652.066 416.083C652.066 416.083 636.649 394.683 655.623 382.793L641.393 375.66C641.393 375.66 627.162 343.559 636.649 326.914C646.136 310.27 646.136 300.758 646.136 300.758Z" fill="#F34E1A"/>
<path id="Vector_20" d="M646.679 212.748L678.085 196.255L721.458 203.002L730.43 242.736L708.093 241.875L701.852 227.277V241.634L691.546 241.237L685.563 217.996L681.825 242.736L645.183 241.987L646.679 212.748Z" fill="#2F2E41"/>
<path id="Vector_21" d="M724.602 253.803C728.095 253.803 730.927 248.835 730.927 242.706C730.927 236.578 728.095 231.61 724.602 231.61C721.109 231.61 718.277 236.578 718.277 242.706C718.277 248.835 721.109 253.803 724.602 253.803Z" fill="#FFB8B8"/>
<path id="Vector_22" d="M725.21 250.562C727.594 250.562 729.526 248.624 729.526 246.234C729.526 243.844 727.594 241.907 725.21 241.907C722.826 241.907 720.894 243.844 720.894 246.234C720.894 248.624 722.826 250.562 725.21 250.562Z" fill="white"/>
<path id="Vector_23" d="M727.063 247.693C727.451 247.693 727.765 246.748 727.765 245.583C727.765 244.417 727.451 243.472 727.063 243.472C726.676 243.472 726.362 244.417 726.362 245.583C726.362 246.748 726.676 247.693 727.063 247.693Z" fill="#2F2E41"/>
<path id="Vector_24" d="M726.952 258.795C726.659 258.795 726.378 258.678 726.171 258.471C725.964 258.263 725.847 257.981 725.847 257.688L724.743 248.831H728.056V257.688C728.056 257.833 728.027 257.977 727.972 258.111C727.916 258.246 727.835 258.368 727.732 258.471C727.63 258.573 727.508 258.655 727.374 258.711C727.24 258.766 727.097 258.795 726.952 258.795V258.795Z" fill="white"/>
<path id="Vector_25" opacity="0.1" d="M640.828 333.016L629.63 381.666H655.759L635.229 376.988L640.828 333.016Z" fill="black"/>
<path id="Vector_26" d="M775.731 413.382L775.483 413.158L781.612 406.339C782.078 405.821 782.438 405.216 782.67 404.558C782.903 403.901 783.004 403.204 782.968 402.507C782.932 401.81 782.759 401.128 782.46 400.498C782.161 399.868 781.741 399.303 781.224 398.836L766.814 385.817C766.298 385.35 765.694 384.989 765.038 384.756C764.382 384.523 763.687 384.421 762.992 384.458C762.297 384.494 761.616 384.667 760.988 384.967C760.359 385.267 759.796 385.688 759.33 386.206L725.703 423.614C725.237 424.132 724.878 424.737 724.645 425.395C724.413 426.052 724.311 426.75 724.347 427.446C724.384 428.143 724.556 428.826 724.855 429.456C725.155 430.085 725.575 430.65 726.092 431.117L740.501 444.137C741.018 444.604 741.622 444.964 742.278 445.197C742.933 445.431 743.629 445.532 744.324 445.496C745.019 445.46 745.7 445.287 746.328 444.987C746.956 444.686 747.519 444.265 747.985 443.747L771.12 418.012L771.368 418.236L775.731 413.382Z" fill="#1E3BA0"/>
<path id="Vector_27" d="M764.427 406.671C766.313 406.671 767.842 405.138 767.842 403.247C767.842 401.356 766.313 399.824 764.427 399.824C762.541 399.824 761.012 401.356 761.012 403.247C761.012 405.138 762.541 406.671 764.427 406.671Z" fill="#6C63FF"/>
<path id="Vector_28" d="M740.747 401.183C740.747 401.183 781.172 410.993 771.858 424.979C762.544 438.965 725.772 413.401 725.772 413.401L740.747 401.183Z" fill="#FFB8B8"/>
<path id="Vector_29" d="M750.494 313.836H761.167C761.167 313.836 773.025 326.914 770.654 338.804C768.282 350.693 761.167 406.572 761.167 406.572C761.167 406.572 725.59 439.862 707.802 422.028C690.014 404.194 703.059 387.549 703.059 387.549C703.059 387.549 726.776 406.572 739.821 381.605L750.494 313.836Z" fill="#F34E1A"/>
<path id="Vector_30" d="M739.887 394.895L748.055 313.991C748.055 313.991 765.187 262.915 748.463 261.664C731.739 260.412 730.564 310.063 730.564 310.063L701.436 398.593C701.436 398.593 717.421 414.289 739.887 394.895Z" fill="#FFB8B8"/>
</g>
</g>
</g>
</g>
<defs>
<clipPath id="clip0">
<rect x="191" y="188" width="867" height="676" fill="white"/>
</clipPath>
</defs>
</svg>
